PathFileType  4	(X/Y/Z) C:\Users\antoi\Documents\MyRepositories\mobilecap\ResultsAnalysis
DataRate	CameraRate	NumFrames	NumMarkers	Units	OrigDataRate	OrigDataStartFrame	OrigNumFrames
100.0	100.0	6	51	mm	100.0	143	163
Frame#	Time	r_knee			r_shank_antsup			r_ankle			r_calc			r_5meta			r_toe			L_knee			L_shank_antsup			L_ankle			L_calc			L_5meta			L_toe			r_sh2			r_sh3			r_sh4			L_sh2			L_sh3			r_thigh1			r_thigh2			r_thigh3			r_thigh4			r_thigh5			L_thigh1			L_thigh2			L_thigh3			L_thigh4			r.ASIS			r.PSIS			L.ASIS			L.PSIS			C7			R_Shoulder			L_Shoulder			R_Sternum			L_Sternum			R_humerus			R_elbow_med			R_elbow_lat			R_forearm			R_wrist_radius			R_wrist_ulna			L_humerus			L_elbow_med			L_elbow_lat			L_forearm			L_wrist_radius			L_wrist_ulna			R_HJC			L_HJC			R_HJC_reg			L_HJC_reg			
		X1	Y1	Z1	X2	Y2	Z2	X3	Y3	Z3	X4	Y4	Z4	X5	Y5	Z5	X6	Y6	Z6	X7	Y7	Z7	X8	Y8	Z8	X9	Y9	Z9	X10	Y10	Z10	X11	Y11	Z11	X12	Y12	Z12	X13	Y13	Z13	X14	Y14	Z14	X15	Y15	Z15	X16	Y16	Z16	X17	Y17	Z17	X18	Y18	Z18	X19	Y19	Z19	X20	Y20	Z20	X21	Y21	Z21	X22	Y22	Z22	X23	Y23	Z23	X24	Y24	Z24	X25	Y25	Z25	X26	Y26	Z26	X27	Y27	Z27	X28	Y28	Z28	X29	Y29	Z29	X30	Y30	Z30	X31	Y31	Z31	X32	Y32	Z32	X33	Y33	Z33	X34	Y34	Z34	X35	Y35	Z35	X36	Y36	Z36	X37	Y37	Z37	X38	Y38	Z38	X39	Y39	Z39	X40	Y40	Z40	X41	Y41	Z41	X42	Y42	Z42	X43	Y43	Z43	X44	Y44	Z44	X45	Y45	Z45	X46	Y46	Z46	X47	Y47	Z47	X48	Y48	Z48	X49	Y49	Z49	X50	Y50	Z50	X51	Y51	Z51	

143	1.42000000	1463.84397	540.81489	-181.12500	1524.60659	426.46335	-196.13872	1498.75820	87.03980	-224.92341	1443.89250	56.29634	-284.04852	1633.84702	34.87604	-171.36843	1674.85689	72.42911	-234.79630	1165.33073	540.60178	-519.20662	1148.28949	426.39955	-509.77860	894.12233	169.65748	-503.68007	829.11423	173.26641	-447.20483	980.34255	32.65318	-531.19260	1023.35762	48.30869	-467.34760	1550.93662	318.34760	-221.84284	1465.04728	401.77543	-153.77544	1495.60628	289.16128	-164.78867	1075.87882	468.32168	-543.27559	1031.44777	356.04035	-559.75701	1478.41300	786.64668	-180.84330	1513.16051	681.10376	-199.76817	1490.30501	640.80091	-149.52655	1395.93422	745.60127	-114.92182	1434.66253	638.37327	-141.24730	1327.88016	754.85417	-523.16923	1293.58921	623.10481	-519.12670	1221.37860	780.90085	-551.94384	1185.82386	646.33809	-537.33804	1384.62496	1013.21701	-180.98546	1192.01102	1060.71026	-282.15193	1412.72476	997.61957	-446.34221	1200.87209	1062.84573	-379.70018	1317.92156	1540.99138	-431.27465	1360.90592	1507.36422	-225.01351	1394.73939	1424.09426	-576.37960	1435.61117	1446.40868	-370.67376	1436.76152	1432.25096	-416.68883	1340.41258	1357.33490	-115.52581	1230.53800	1146.72114	-114.35178	1256.54483	1180.50372	-42.57262	1341.95368	1029.59437	-14.47349	1368.14678	912.84981	11.84773	1339.84767	910.34850	43.28053	1413.68809	1242.22985	-619.39265	1338.89063	1032.84184	-571.83794	1388.88995	1042.55976	-634.59436	1498.29513	933.57238	-565.03424	1555.18432	828.74691	-554.84566	1534.76390	811.48741	-595.20004	1299.29448	939.36463	-220.19120	1319.24071	919.32044	-431.70908	1311.37095	927.92519	-227.36877	1327.33149	931.77560	-403.00841	
144	1.43000000	1478.22259	542.09870	-179.63978	1536.78247	425.71372	-195.27107	1501.26619	87.56721	-225.13051	1445.15791	57.90176	-284.06913	1634.54274	33.85073	-171.22142	1676.90497	68.75772	-235.47342	1183.45124	538.33433	-520.76173	1163.71239	424.47074	-511.63207	902.50421	175.43764	-504.49185	837.92546	182.35115	-447.37397	982.13572	33.92553	-531.25865	1025.46588	47.98111	-467.44173	1560.02154	317.06415	-221.43425	1476.75753	402.43218	-152.67959	1504.41324	289.16766	-164.00036	1092.41836	468.71093	-544.15253	1044.57388	357.67648	-560.73088	1492.16063	788.61349	-177.70201	1527.19662	683.25081	-196.97676	1504.40408	642.73015	-147.01655	1409.10211	746.82773	-112.97909	1448.82392	640.01882	-139.13476	1342.64456	754.68219	-522.97039	1310.60758	622.26250	-519.94672	1235.72183	779.25259	-551.38430	1202.36678	644.06336	-537.95188	1397.19415	1014.09319	-179.72064	1203.96583	1060.47735	-280.78140	1424.10406	998.10969	-445.15872	1212.26473	1062.24840	-378.48297	1329.68453	1542.66045	-424.77119	1372.68014	1505.72672	-218.98388	1406.65960	1427.70821	-571.50407	1447.26556	1447.07372	-365.52989	1448.54759	1433.69500	-411.66061	1353.27055	1353.97581	-111.80140	1244.49830	1142.75313	-112.88805	1270.36015	1175.97637	-40.75896	1355.24901	1024.77259	-13.54752	1381.15177	907.88090	12.04697	1352.61564	905.19659	43.41363	1423.66397	1245.61513	-615.51184	1343.99116	1037.05398	-571.38194	1394.96659	1046.65918	-633.59568	1500.19140	932.90270	-565.37883	1553.49390	826.01983	-556.94391	1533.07178	810.49211	-597.64214	1311.90185	939.79200	-218.67816	1331.32125	919.26730	-430.20201	1324.13130	928.65547	-225.33614	1339.06200	931.84417	-401.06915	
145	1.44000000	1491.93567	543.16421	-177.99564	1548.02923	424.81748	-194.07314	1503.17973	88.08904	-225.20585	1446.01336	59.16408	-283.97251	1634.99897	33.40297	-171.00682	1678.36256	65.99127	-236.02400	1202.77743	535.92057	-522.41107	1180.39764	422.59691	-513.61257	912.17186	181.88733	-505.14219	848.25964	192.34156	-447.28934	984.32185	35.98491	-531.29564	1027.96318	47.98955	-467.44345	1568.05022	315.62898	-220.66432	1487.35217	402.95537	-151.50710	1512.07326	289.09494	-163.05627	1110.21393	469.06727	-545.14770	1059.07459	359.36533	-561.76682	1505.74787	790.43395	-174.41273	1540.78253	685.16912	-194.09013	1518.11030	644.50924	-144.37712	1422.09941	748.07927	-110.86055	1462.80956	641.70538	-136.71638	1357.84997	754.61236	-522.91467	1328.50384	621.47294	-521.01021	1250.45348	777.37647	-550.90545	1219.74476	641.53089	-538.73717	1409.71638	1015.46051	-178.41051	1215.89602	1060.45058	-279.48689	1435.23539	998.86100	-443.99366	1223.51081	1061.93706	-377.29757	1341.46924	1544.51755	-418.32122	1384.47640	1504.55850	-213.10383	1418.62569	1431.65679	-566.63459	1458.90541	1447.97099	-360.42735	1460.28234	1435.31561	-406.65797	1366.22568	1351.16352	-108.29071	1258.64347	1139.34250	-111.78136	1284.26081	1172.02074	-39.21045	1368.67640	1020.55319	-12.80363	1394.29014	903.49374	12.14673	1365.48315	900.70709	43.42479	1433.52909	1249.43954	-611.90950	1349.04550	1041.97607	-570.71733	1400.85326	1051.31536	-632.51498	1501.72756	932.84773	-565.86884	1551.24018	823.95947	-559.30878	1530.81803	810.22257	-600.30258	1324.46704	940.61941	-217.11682	1343.30110	919.45037	-428.63206	1336.99551	929.53805	-223.22765	1350.68805	932.21193	-399.10583	
146	1.45000000	1504.58756	543.84259	-176.26577	1558.18172	423.72949	-192.62572	1504.61486	88.54238	-225.16115	1446.55068	60.12105	-283.80093	1635.27884	33.26602	-170.74516	1679.38807	63.94836	-236.41086	1223.15111	533.33363	-524.09376	1198.30015	420.72308	-515.56194	923.13621	189.01887	-505.63008	860.14152	203.21558	-447.03631	986.97563	39.03274	-531.32521	1030.90065	48.59485	-467.39096	1575.02406	314.03939	-219.63135	1496.69112	403.21623	-150.32051	1518.59348	288.86231	-162.03287	1129.25978	469.33052	-546.23644	1074.90076	361.10117	-562.83303	1519.06710	791.75302	-171.10918	1553.69680	686.43556	-191.19576	1531.02051	645.74774	-141.73680	1434.71716	749.15018	-108.71789	1476.21735	643.17347	-134.19255	1373.41792	754.57533	-523.08078	1347.20163	620.70108	-522.33968	1265.51767	775.18022	-550.58424	1237.91278	638.67607	-539.73864	1422.27021	1017.20488	-177.15102	1227.80988	1060.53567	-278.20722	1446.10691	999.75918	-442.94334	1234.62084	1061.81027	-376.08137	1353.21818	1546.50103	-411.90269	1396.28416	1503.77563	-207.34692	1430.54153	1435.86220	-561.74571	1470.50124	1449.01956	-355.35508	1471.91261	1437.03628	-401.67854	1379.22461	1348.83639	-104.92877	1272.87834	1136.45455	-110.96489	1298.13438	1168.58793	-37.86711	1382.20274	1016.92956	-12.19511	1407.58858	899.68097	12.15157	1378.49270	896.83387	43.31933	1443.25540	1253.62004	-608.60727	1354.08102	1047.52817	-569.82844	1406.53127	1056.45562	-631.36652	1502.95511	933.40190	-566.51953	1548.51019	822.61829	-561.94195	1528.08701	810.67125	-603.22193	1337.06260	941.73499	-215.53482	1355.14101	919.77001	-427.03453	1349.98987	930.47465	-221.14075	1362.23777	932.76690	-397.20903	
147	1.46000000	1515.93556	544.08747	-174.53806	1567.20274	422.48028	-191.07260	1505.70060	88.90946	-225.02524	1446.87097	60.84437	-283.59024	1635.43902	33.24775	-170.46278	1680.12478	62.45201	-236.63829	1244.36759	530.57883	-525.75318	1217.30541	418.80058	-517.30550	935.38476	196.80731	-505.95255	873.56442	214.90355	-446.71869	990.20018	43.22745	-531.36781	1034.33925	50.02203	-467.33088	1581.04246	312.36281	-218.49412	1504.81145	403.17993	-149.17210	1524.13093	288.46484	-161.00607	1149.50732	469.47140	-547.37721	1091.93032	362.90373	-563.85988	1532.00072	792.37390	-167.95281	1565.78233	686.81947	-188.41124	1542.86686	646.23239	-139.22984	1446.80583	749.93759	-106.67122	1488.68676	644.24012	-131.77192	1389.24528	754.53680	-523.50353	1366.57372	619.94216	-523.91010	1280.84116	772.60876	-550.44720	1256.77495	635.48826	-540.97463	1434.91163	1019.18674	-176.05364	1239.70059	1060.68784	-276.86551	1456.72206	1000.69051	-442.11013	1245.59511	1061.77383	-374.76679	1364.88635	1548.56025	-405.50377	1408.08952	1503.26206	-201.68578	1442.30710	1440.24095	-556.81706	1482.03283	1450.15818	-350.32016	1483.40370	1438.81329	-396.73292	1392.20189	1346.89540	-101.63712	1287.09720	1134.00970	-110.33117	1311.87860	1165.58122	-36.64944	1395.79309	1013.83958	-11.66232	1421.06926	896.38772	12.06484	1391.69178	893.47670	43.10368	1452.81004	1258.05757	-605.56454	1359.10443	1053.57823	-568.71862	1411.98351	1061.98354	-630.16221	1503.94273	934.53733	-567.34285	1545.41597	822.01284	-564.83450	1525.00166	811.82919	-606.41979	1349.73565	943.02633	-213.96873	1366.77791	920.13905	-425.45275	1363.08652	931.44039	-219.15846	1373.69203	933.39378	-395.44997	
148	1.47000000	1525.93971	543.96324	-172.91037	1575.15926	421.14702	-189.58896	1506.54760	89.19913	-224.84293	1447.05768	61.41421	-283.36929	1635.52232	33.23745	-170.19089	1680.66890	61.34357	-236.74817	1266.21579	527.70835	-527.34766	1237.27073	416.82437	-518.70847	948.89896	205.16964	-506.10283	888.52207	227.27192	-446.42171	994.13641	48.64027	-531.43421	1038.36162	52.39827	-467.30017	1586.25492	310.69674	-217.43056	1511.88005	402.89642	-148.11332	1528.91350	287.95065	-160.04947	1170.85785	469.50677	-548.51930	1110.02261	364.79250	-564.75611	1544.45433	792.30426	-165.12786	1576.99723	686.34318	-185.88437	1553.59592	645.98003	-136.98721	1458.32248	750.46249	-104.80692	1500.00335	644.84010	-129.63652	1405.21848	754.50943	-524.16693	1386.44512	619.23487	-525.65118	1296.34047	769.67767	-550.46704	1276.18344	632.03437	-542.41695	1447.65906	1021.26760	-175.22578	1251.54268	1060.91146	-275.39128	1467.09775	1001.56942	-441.58726	1256.41636	1061.75864	-373.29933	1376.44705	1550.65662	-399.12910	1419.88222	1502.88754	-196.10149	1453.84035	1444.71389	-551.84333	1493.48666	1451.34303	-345.34901	1494.74337	1440.62744	-391.84771	1405.09468	1345.22092	-98.34340	1301.19983	1131.89978	-109.75466	1325.41929	1162.87855	-35.47237	1409.41853	1011.17963	-11.14889	1434.74205	893.52238	11.88788	1405.11833	890.50757	42.78207	1462.14905	1262.65571	-602.70396	1364.10430	1059.96902	-567.41133	1417.19206	1067.79622	-628.91333	1504.76403	936.21373	-568.34681	1542.07953	822.12204	-567.96646	1521.70242	813.69158	-609.89271	1362.49713	944.39881	-212.46387	1378.13865	920.50166	-423.93650	1376.21386	932.47598	-217.34029	1384.98982	933.99955	-393.87442	
